<svg xmlns="http://www.w3.org/2000/svg" 
xml:space="preserve" 
width="60" 
height="60"
viewBox="0 0 6.827 6.827">
<defs><style>.fil5{fill:none}</style>
</defs><g id="Layer_x0020_1">
<path d="M1.05 4.198a.95.95 0 0 1 1.554.248h2.86a.402.402 0 0 1 0 .802h-2.86a.95.95 0 0 1-1.559.243s-.075-.17.075-.17h.497c.088-.15.18-.333.274-.474-.045-.08-.091-.158-.137-.237-.043-.075-.099-.161-.137-.237H1.12a.101.101 0 0 1-.07-.175z" style="fill:#b9b9b9"/><path d="M1.302 4.206h.419l.046.093c.038.077.088.152.132.227l.137.239.05.088-.056.086c-.098.148-.179.312-.269.466l-.05.084-.096-.002h-.322a.785.785 0 0 0 1.16-.31l.045-.096h2.966a.235.235 0 0 0 .234-.234.235.235 0 0 0-.234-.234H2.498l-.045-.097c-.212-.453-.76-.568-1.151-.31z" style="fill:#d1d1d1"/><path d="M1.164 2.861c1.28-2.96 4.266-1.574 4.553 0a10.147 10.147 0 0 1-4.553 0z" style="fill:#d4d4d4"/><path d="M5.999 3.2a.106.106 0 0 1-.081.127c-.782.174-1.63.26-2.476.26a11.53 11.53 0 0 1-2.477-.26.106.106 0 0 1-.08-.127c.011-.052.06-.353.111-.396.782.198 1.614.297 2.445.297.832 0 1.664-.1 2.446-.297.052.043.1.344.112.396z" style="fill:#b3b4b4"/><path d="M3.122.86h.64c.058 0 .106.048.106.107v1.341a.107.107 0 0 1-.106.107h-.64a.107.107 0 0 1-.107-.107V.968c0-.06.048-.107.107-.107z" style="fill:#b3b4b4;fill-rule:nonzero"/><path class="fil5" style="stroke:#414141;stroke-width:.00333465;stroke-linecap:round;stroke-linejoin:round" d="M.998 5.345h0"/><path d="M1.164 2.861c.14-.896.898-1.456 1.744-1.666v1.113c0 .118.096.214.214.214h.64a.213.213 0 0 0 .213-.214V1.195c.839.211 1.593.782 1.742 1.666a9.997 9.997 0 0 1-2.276.258 9.985 9.985 0 0 1-2.277-.258z" style="fill:red"/><path d="M1.164 2.861c.015-.096.037-.187.065-.275.713.16 1.463.24 2.212.24.748 0 1.496-.08 2.207-.24.03.089.053.18.069.275a9.997 9.997 0 0 1-2.276.258 9.985 9.985 0 0 1-2.277-.258z" style="fill:red"/><path d="M2.691 4.712h2.633c.058 0 .106.06.106.134 0 .074-.048.135-.106.135H2.69c-.059 0-.107-.06-.107-.135 0-.074.048-.134.107-.134z" style="fill:red"/></g><path class="fil5" d="M0 0h6.827v6.827H0z"/></svg>